<svg width="1728" height="1691" viewBox="0 0 1728 1691" fill="none" xmlns="http://www.w3.org/2000/svg">
<path d="M1008.41 708.969L1676.33 1097.02C1698.07 1109.65 1698.14 1141.02 1676.47 1153.75L787.053 1676.31C772.157 1685.06 755.622 1689.81 738.945 1690.54C719.509 1691.4 699.88 1686.8 682.435 1676.75L16.4605 1292.95C-5.44549 1280.33 -5.47949 1248.73 16.4005 1236.06L926.662 708.912C951.949 694.268 983.144 694.289 1008.41 708.969Z" fill="#2D2862"/>
<path d="M1676.47 1133.36L1637.95 1155.99L1627.71 1162.01L1442.07 1271.03L1431.82 1277.05L1246.19 1386.07L1235.94 1392.08L1050.31 1501.11L1040.06 1507.12L854.436 1616.15L844.182 1622.17L786.97 1655.77C772.075 1664.52 755.536 1669.26 738.859 1669.99C719.427 1670.84 699.797 1666.25 682.354 1656.19L526.263 1566.2L515.922 1560.24L328.55 1452.22L318.211 1446.25L130.84 1338.23L120.5 1332.27L16.4435 1272.28C-5.45949 1259.66 -5.48549 1228.05 16.3915 1215.38L77.3735 1180.09L87.6875 1174.11L274.68 1065.87L284.995 1059.9L471.987 951.647L482.302 945.68L669.294 837.432L679.617 831.457L866.609 723.217L876.923 717.242L926.748 688.4C952.034 673.755 983.226 673.781 1008.5 688.469L1122.38 754.66L1132.68 760.652L1319.3 869.108L1329.59 875.1L1516.21 983.556L1526.5 989.54L1676.35 1076.63C1698.08 1089.26 1698.15 1120.64 1676.47 1133.36Z" fill="#0FCDE1"/>
<g opacity="0.4">
<path d="M526.935 1396.09C601.499 1396.09 661.946 1360.89 661.946 1317.47C661.946 1274.05 601.499 1238.85 526.935 1238.85C452.37 1238.85 391.924 1274.05 391.924 1317.47C391.924 1360.89 452.37 1396.09 526.935 1396.09Z" fill="#0FCDE1"/>
</g>
<g opacity="0.4">
<path d="M1525.44 1203.27L1357.4 1106.02L1400.24 1081.92L1109.51 913.682L1067.33 938.165L811.362 790.033L774.525 811.414L1030.5 959.546L917.044 1025.39L1206.42 1190.95L1319.98 1127.07L1488.02 1224.32L1525.44 1203.27Z" fill="#0FCDE1"/>
</g>
<path d="M1031.83 869.845L1322.56 996.364V1038.09L1128.74 1147.11L839.365 981.559V939.835L1031.83 869.845Z" fill="#2D2B64"/>
<path d="M1031.83 828.121L1322.56 996.364L1128.74 1105.39L839.365 939.835L1031.83 828.121Z" fill="#D9DDF6"/>
<path d="M1189.47 891.484V1004L1189.27 1004.12L1149.91 1026.97L1149.95 1027.05L1149.91 1027.03L980.143 929.514V771.242L1189.47 891.484Z" fill="#B4BAEC"/>
<path d="M1189.27 1004.12L1149.91 1026.97V868.865L1189.27 891.484V1004.12Z" fill="#242454"/>
<path d="M665.212 49.145V619.509C665.212 637.079 674.606 653.309 689.842 662.061L1482.38 1117.31C1500.93 1127.96 1522.07 1124.99 1536.91 1113.54C1548.24 1104.79 1555.9 1091.1 1555.9 1074.76V504.394C1555.9 486.824 1546.5 470.594 1531.27 461.842L738.727 6.59298C706.012 -12.198 665.212 11.417 665.212 49.145Z" fill="#D9DDF6"/>
<path d="M1531.27 461.843L738.727 6.59398C721.494 -3.30502 702.023 -1.42701 687.448 8.07399L1477.41 461.843C1492.65 470.595 1502.04 486.824 1502.04 504.395V1074.76C1502.04 1091.1 1494.39 1104.79 1483.05 1113.54C1482 1114.35 1480.91 1115.11 1479.8 1115.83L1482.38 1117.31C1500.93 1127.96 1522.07 1124.99 1536.91 1113.54C1548.24 1104.79 1555.9 1091.1 1555.9 1074.76V504.394C1555.9 486.824 1546.5 470.594 1531.27 461.843Z" fill="#2D2862"/>
<path d="M1444.32 500.713V1044.26L1177.79 891.164L1157.78 879.669L1132.33 865.056L963.975 768.35L725.282 631.238V87.6899L1041.42 269.282L1082.44 292.845L1084.64 294.106L1136.36 323.815L1142.34 327.249L1192.12 355.845L1444.32 500.713Z" fill="white"/>
<path d="M922.006 371.604V258.943L756.394 163.812V276.473L922.006 371.604Z" fill="#F8F7F5"/>
<path d="M922.006 507.826V395.165L756.394 300.034V412.695L922.006 507.826Z" fill="#F8F7F5"/>
<path d="M1407.23 635.041V522.38L1241.61 427.25V539.911L1407.23 635.041Z" fill="#F8F7F5"/>
<path d="M1407.23 771.263V658.602L1241.61 563.472V676.133L1407.23 771.263Z" fill="#F8F7F5"/>
<path d="M1514.66 221.911L1315.52 107.522L1301.4 115.643L1315.52 543.613L1500.67 665.035L1514.66 658.002V221.911Z" fill="#0FCDE1"/>
<path d="M1500.03 229.792L1300.89 115.403V551.494L1500.03 665.883V229.792Z" fill="#0FCDE1"/>
<path d="M1317.87 254.993V273.561L1483.04 368.438V349.87L1317.87 254.993Z" fill="white"/>
<path d="M1317.87 332.978V351.545L1483.04 446.422V427.854L1317.87 332.978Z" fill="white"/>
<path d="M1437.35 243.783L1317.87 175.152V193.719L1437.35 262.351V243.783Z" fill="white"/>
<path d="M1368.65 245.169L1317.87 216.001V234.568L1368.65 263.737V245.169Z" fill="white"/>
<path d="M1381.65 252.635V271.203L1483.04 329.445V310.877L1381.65 252.635Z" fill="#F80492"/>
<path d="M1394.65 338.085L1317.87 293.985V312.553L1394.65 356.653V338.085Z" fill="white"/>
<path d="M1407.64 345.551V364.119L1483.04 407.43V388.862L1407.64 345.551Z" fill="white"/>
<path d="M1317.87 462.952V481.52L1483.04 576.396V557.829L1317.87 462.952Z" fill="white"/>
<path d="M1368.65 453.128L1317.87 423.96V442.527L1368.65 471.696V453.128Z" fill="#F80492"/>
<path d="M1381.65 460.594V479.162L1483.04 537.404V518.836L1381.65 460.594Z" fill="white"/>
<path d="M1394.65 546.044L1317.87 501.944V520.512L1394.65 564.612V546.044Z" fill="white"/>
<path d="M1407.64 553.51V572.078L1483.04 615.389V596.821L1407.64 553.51Z" fill="#F80492"/>
<path d="M780.639 766.357V481.972L581.499 367.582L567.377 375.704L576.984 666.838L765.518 775.364L780.639 766.357Z" fill="#0FCDE1"/>
<path d="M766.004 775.414V489.853L566.865 375.463V661.025L766.004 775.414Z" fill="#0FCDE1"/>
<path d="M583.849 515.053V533.621L749.02 628.498V609.93L583.849 515.053Z" fill="white"/>
<path d="M583.849 593.038V611.606L749.02 706.482V687.915L583.849 593.038Z" fill="white"/>
<path d="M703.329 503.843L583.849 435.212V453.78L703.329 522.411V503.843Z" fill="white"/>
<path d="M634.628 505.229L583.849 476.061V494.629L634.628 523.797V505.229Z" fill="white"/>
<path d="M647.625 512.695V531.263L749.02 589.505V570.938L647.625 512.695Z" fill="#F80492"/>
<path d="M660.623 598.146L583.849 554.046V572.613L660.623 616.714V598.146Z" fill="white"/>
<path d="M673.621 605.612V624.18L749.02 667.49V648.922L673.621 605.612Z" fill="white"/>
<path d="M1319.33 842.502L1714.57 1083.83L1727.53 1077.02V957.123L1319.33 721.087L1305.9 728.08L1319.33 842.502Z" fill="#0FCDE1"/>
<path d="M1305.82 727.842V821.852C1290.94 826.115 1271.87 831.654 1273.26 831.654C1274.6 831.654 1292.01 841.293 1305.82 849.057V849.257L1714.02 1083.78V963.877L1305.82 727.842Z" fill="#0FCDE1"/>
<path d="M1453.38 831.781L1321.75 755.665V777.055L1453.38 853.171V831.781Z" fill="#F80492"/>
<path d="M1415.11 843.422V864.812L1695.43 1026.9V1005.51L1415.11 843.422Z" fill="white"/>
<path d="M1401.6 835.61L1321.75 789.439V810.829L1401.6 857V835.61Z" fill="white"/>
<path d="M1531.06 945.372L1321.75 824.339V845.729L1531.06 966.762V945.372Z" fill="white"/>
<path d="M1544.57 953.184V974.574L1695.43 1061.8V1040.41L1544.57 953.184Z" fill="#F80492"/>
<path d="M692.688 573.04C692.688 573.04 689.386 559.946 699.078 557.229C706.493 555.151 713.965 570.928 722.677 575.658C731.084 580.223 717.192 615.193 717.192 615.193C648.519 626.775 652.168 573.7 692.688 573.04Z" fill="#F4A590"/>
<path d="M970.712 484.157L960.63 581.795L958.521 602.237L956.105 625.656V625.679C956.105 625.679 920.543 696.077 892.412 696.077C871.642 696.077 824.618 675.354 784.109 655.357C746.366 636.72 714.25 618.716 714.25 618.716L724.33 570.94L868.969 618.716C868.969 618.716 916.113 528.064 951.16 497.049C951.207 497.002 951.229 496.979 951.276 496.955C958.708 490.37 965.413 485.752 970.712 484.157Z" fill="#8CD337"/>
<g opacity="0.56">
<path d="M960.63 581.795L958.52 602.237L956.105 625.656V625.679C956.105 625.679 920.543 696.077 892.412 696.077C871.642 696.077 824.617 675.354 784.108 655.357C842.621 674.088 921.059 672.002 960.63 581.795Z" fill="#2BA150"/>
</g>
<path d="M1139.52 765.817C1138.16 783.605 1143.46 793.579 1150.64 806.166C1151.88 808.316 1153.18 810.557 1154.48 812.932C1154.99 813.81 1155.49 814.711 1155.99 815.645C1156.72 817.007 1157.48 818.414 1158.22 819.878C1158.99 821.364 1159.75 822.918 1160.52 824.528C1164.08 832.048 1167.63 840.987 1170.71 852.302C1171.58 855.522 1172.42 858.922 1173.21 862.536C1173.22 862.592 1173.23 862.637 1173.24 862.693C1173.42 863.526 1173.6 864.359 1173.77 865.215C1175.36 872.871 1176.72 881.46 1177.79 891.165L1157.78 879.671C1145.57 884.895 1134.62 877.577 1132.33 865.058L963.975 768.352C964.402 761.98 964.38 755.349 963.761 748.358C959.483 700.185 937.361 705.544 931.36 665.634C931.225 664.846 931.112 664.035 931.011 663.202C929.086 648.15 930.831 635.417 933.994 624.429C939.803 604.322 950.341 590.047 951.748 578.046C953.932 559.493 951.748 498.35 964.852 487.43C966.034 486.451 968.004 485.415 970.684 484.424C981.717 480.304 1004.83 476.634 1034.72 478.379C1034.8 478.379 1034.88 478.379 1034.95 478.39C1036.27 478.469 1037.62 478.548 1038.98 478.66H1039C1049.4 479.426 1060.57 480.855 1072.28 483.118C1078.12 484.266 1084.11 485.617 1090.21 487.194L1090.23 487.205C1094.68 488.365 1099.19 489.648 1103.75 491.067C1103.98 491.135 1104.22 491.213 1104.45 491.281C1124.94 497.721 1146.42 506.907 1167.96 519.696C1168.4 519.955 1168.85 520.214 1169.3 520.495C1170.22 521.047 1171.14 521.61 1172.07 522.184C1173.4 522.995 1174.74 523.828 1176.06 524.683C1181.26 528.95 1186.57 533.644 1191.93 538.688V544.204C1188.05 579.081 1179.88 604.513 1165.11 637.274C1163.9 639.942 1162.66 642.655 1161.36 645.436C1160.65 646.967 1159.92 648.521 1159.18 650.097C1140.61 689.397 1142.8 723.239 1139.52 765.817Z" fill="#8CD337"/>
<path d="M1173.24 862.688C1173.23 862.633 1173.22 862.59 1173.21 862.535C1173.23 862.633 1173.23 862.677 1173.23 862.677L1173.24 862.688Z" fill="#3186FB"/>
<g opacity="0.56">
<path d="M1046.73 727.61C1046.73 727.61 1045.64 765.82 1106.78 789.838C1150.32 806.945 1165.55 836.64 1170.71 852.306C1167.63 840.985 1164.08 832.044 1160.52 824.533C1157.14 817.393 1153.72 811.542 1150.64 806.17C1143.46 793.583 1138.16 783.604 1139.53 765.82C1142.8 723.243 1140.62 689.4 1159.18 650.098C1161.26 645.677 1163.24 641.419 1165.11 637.27C1179.88 604.508 1188.05 579.082 1191.93 544.201V538.688C1186.57 533.644 1181.26 528.95 1176.07 524.681C1173.82 523.24 1171.56 521.843 1169.3 520.489C1168.85 520.216 1168.4 519.954 1167.95 519.692C1165.04 519.353 1162.45 519.496 1160.27 520.183C1136.25 527.825 1130.79 630.446 1108.96 665.381C1087.12 700.316 1070.75 719.967 1021.62 706.866H1013.98C1029.26 726.519 1046.73 727.61 1046.73 727.61Z" fill="#2BA150"/>
</g>
<path d="M1184.98 841.651C1184.82 842.124 1184.67 842.586 1184.5 843.047C1181.29 852.256 1177.63 859.551 1173.77 865.214C1168.6 872.791 1163.07 877.406 1157.78 879.669C1145.57 884.893 1134.62 877.575 1132.33 865.056C1131.17 858.808 1132.17 851.254 1136.26 843.328C1136.26 843.328 1123.15 840.052 1125.34 830.235C1126.89 823.221 1141.77 822.884 1150.85 819.033C1152.58 818.29 1154.1 817.434 1155.27 816.365C1155.53 816.14 1155.78 815.892 1155.99 815.645C1156.91 814.62 1157.5 813.438 1157.73 812.031L1184.98 841.651Z" fill="#F4A590"/>
<path d="M1294.12 679.559C1278.99 642.031 1235.95 551.046 1163.43 517.874L1148.98 514.957C1113.76 528.589 1109.22 583.117 1109.22 583.117C1117.34 600.671 1207.71 694.906 1207.71 694.906L1153.8 814.463C1167.86 833.217 1192.48 848.455 1192.48 848.455L1290.56 709.863C1296.82 701.017 1298.18 689.607 1294.12 679.559Z" fill="#8CD337"/>
<path d="M1105.74 489.784L1049.48 555.423L1023.69 524.948L997.904 536.669C997.904 536.669 1004.94 499.161 1035.41 478.063L1105.74 489.784Z" fill="white"/>
<path d="M1156.14 365.538C1195.63 365.538 1227.64 333.527 1227.64 294.039C1227.64 254.551 1195.63 222.54 1156.14 222.54C1116.65 222.54 1084.64 254.551 1084.64 294.039C1084.64 333.527 1116.65 365.538 1156.14 365.538Z" fill="#2D2862"/>
<path d="M1024.9 525.643L1104.59 490.708L1099.13 426.297L1094.96 427.924L1034.72 451.407V478.7C1034.72 478.7 1032.51 480.6 1029.56 483.689C1020.62 493.099 1024.9 525.643 1024.9 525.643Z" fill="#F4A590"/>
<g opacity="0.55">
<path d="M1029.56 483.689C1043.13 509.879 1082.63 493.405 1098.04 431.756L1094.96 427.924L1034.72 451.407V478.7C1034.72 478.7 1032.51 480.599 1029.56 483.689Z" fill="#F86C7D"/>
</g>
<path d="M1114.67 350.632C1133.86 347.519 1146.88 329.445 1143.77 310.263C1140.66 291.081 1122.58 278.054 1103.4 281.168C1084.22 284.281 1071.19 302.354 1074.31 321.536C1077.42 340.718 1095.49 353.745 1114.67 350.632Z" fill="#CE0576"/>
<path d="M1041.84 323.382L1011.98 316.984L990.657 342.574C990.657 342.574 967.073 467.13 1037.57 476.922C1114.34 487.585 1114.34 370.296 1114.34 370.296L1041.84 323.382Z" fill="#F4A590"/>
<path d="M973.598 327.647C984.261 257.274 1099.42 248.744 1125.01 306.322C1165.52 351.105 1114.34 404.417 1114.34 404.417C1114.34 404.417 1005.08 406.172 996.029 353.144C983.398 366.926 986.869 378.827 986.869 378.827C986.869 378.827 967.2 374.562 973.598 327.647Z" fill="#2D2862"/>
<path d="M1090.45 420.274C1101.64 420.274 1110.71 411.204 1110.71 400.015C1110.71 388.826 1101.64 379.756 1090.45 379.756C1079.26 379.756 1070.19 388.826 1070.19 400.015C1070.19 411.204 1079.26 420.274 1090.45 420.274Z" fill="#2D2862"/>
<path d="M1098.35 425.742C1109.54 425.742 1118.61 416.672 1118.61 405.483C1118.61 394.294 1109.54 385.224 1098.35 385.224C1087.16 385.224 1078.09 394.294 1078.09 405.483C1078.09 416.672 1087.16 425.742 1098.35 425.742Z" fill="#F4A590"/>
<path d="M1072.17 1174.58L1302.29 1256.85L1303.2 1307.77L941.59 1517.27L708.636 1384.34L708.464 1377.91L707.455 1339.79L707.294 1333.7L1072.17 1174.58Z" fill="#D80080"/>
<path d="M1070.64 1123.72L1302.32 1256.9L940.162 1466.58L707.208 1333.66L1070.64 1123.72Z" fill="#F80492"/>
<path d="M1162.21 1302.88L992.87 1206.25L1040.93 1178.49L1209.58 1275.44L1162.21 1302.88Z" fill="white"/>
<path d="M943.937 1512.51L943.317 1505.05L940.649 1472.96L707.456 1339.79L708.278 1370.81L708.465 1377.91L943.937 1512.51Z" fill="white"/>
<path d="M1096.94 1113.79L1327.05 1196.06L1327.97 1246.97L966.359 1456.47L733.404 1323.55L733.232 1317.11L732.224 1278.99L732.062 1272.9L1096.94 1113.79Z" fill="#7EB232"/>
<path d="M1095.41 1062.92L1327.08 1196.11L964.93 1405.79L731.977 1272.87L1095.41 1062.92Z" fill="#8CD337"/>
<path d="M1186.98 1242.08L1017.64 1145.46L1065.7 1117.7L1234.35 1214.65L1186.98 1242.08Z" fill="#7EB232"/>
<path d="M968.704 1451.71L968.084 1444.25L965.417 1412.17L732.224 1278.99L733.045 1310.02L733.233 1317.11L968.704 1451.71Z" fill="white"/>
<path d="M351.443 1051.85V1054.59L513.579 1147.58L772.273 997.957V995.215L640.504 919.813L609.548 904.839L560.369 930.633L351.443 1051.85Z" fill="#B5A9AD"/>
<path d="M351.443 1051.85L513.579 1144.84L772.273 995.215L640.504 919.813L609.548 902.098L560.369 930.633L351.443 1051.85Z" fill="#D9DDF6"/>
<path d="M375.768 1042.83L588.4 919.463L742.116 1007.42L529.145 1130.6L375.768 1042.83Z" fill="#F8F7F5"/>
<path d="M588.161 919.608L587.707 920.401L741.415 1008.37L741.869 1007.58L588.161 919.608Z" fill="#B5A9AD"/>
<path d="M570.416 929.814L569.962 930.608L723.67 1018.57L724.124 1017.78L570.416 929.814Z" fill="#B5A9AD"/>
<path d="M552.672 940.019L552.218 940.813L705.925 1028.78L706.379 1027.99L552.672 940.019Z" fill="#B5A9AD"/>
<path d="M534.925 950.221L534.471 951.014L688.179 1038.98L688.633 1038.19L534.925 950.221Z" fill="#B5A9AD"/>
<path d="M517.181 960.427L516.727 961.22L670.434 1049.19L670.888 1048.39L517.181 960.427Z" fill="#B5A9AD"/>
<path d="M499.435 970.632L498.981 971.425L652.689 1059.39L653.143 1058.6L499.435 970.632Z" fill="#B5A9AD"/>
<path d="M481.69 980.834L481.236 981.627L634.943 1069.59L635.397 1068.8L481.69 980.834Z" fill="#B5A9AD"/>
<path d="M463.945 991.04L463.491 991.833L617.198 1079.8L617.652 1079.01L463.945 991.04Z" fill="#B5A9AD"/>
<path d="M446.2 1001.24L445.746 1002.04L599.454 1090.01L599.908 1089.21L446.2 1001.24Z" fill="#B5A9AD"/>
<path d="M428.455 1011.45L428.001 1012.24L581.708 1100.21L582.162 1099.41L428.455 1011.45Z" fill="#B5A9AD"/>
<path d="M410.709 1021.65L410.255 1022.44L563.963 1110.41L564.417 1109.62L410.709 1021.65Z" fill="#B5A9AD"/>
<path d="M392.964 1031.86L392.51 1032.65L546.218 1120.62L546.672 1119.82L392.964 1031.86Z" fill="#B5A9AD"/>
<path d="M375.219 1042.06L374.765 1042.85L528.473 1130.82L528.927 1130.03L375.219 1042.06Z" fill="#B5A9AD"/>
<g opacity="0.4">
<path d="M646.549 912.867L613.214 893.79L560.255 924.519L335.271 1055.05V1058.01L509.87 1158.14L788.446 997.016V994.064L646.549 912.867Z" fill="#0FCDE1"/>
</g>
<path d="M356.646 1074.12L356.938 1076.84L528.06 1152.02L769.338 975.688L769.046 972.962L629.992 912.03L597.615 900.441L551.464 931.328L356.646 1074.12Z" fill="#B5A9AD"/>
<path d="M356.646 1074.12L527.768 1149.3L769.046 972.962L629.992 912.03L597.323 897.715L551.464 931.328L356.646 1074.12Z" fill="#D9DDF6"/>
<path d="M379.872 1062.56L578.147 917.235L740.361 988.314L541.727 1133.48L379.872 1062.56Z" fill="#F8F7F5"/>
<path d="M577.856 917.3L577.489 918.137L739.698 989.209L740.065 988.372L577.856 917.3Z" fill="#B5A9AD"/>
<path d="M561.301 929.336L560.934 930.173L723.143 1001.24L723.51 1000.41L561.301 929.336Z" fill="#B5A9AD"/>
<path d="M544.745 941.375L544.379 942.212L706.587 1013.28L706.954 1012.45L544.745 941.375Z" fill="#B5A9AD"/>
<path d="M528.191 953.409L527.824 954.246L690.032 1025.32L690.399 1024.48L528.191 953.409Z" fill="#B5A9AD"/>
<path d="M511.635 965.446L511.268 966.283L673.477 1037.35L673.844 1036.52L511.635 965.446Z" fill="#B5A9AD"/>
<path d="M495.08 977.483L494.713 978.32L656.922 1049.39L657.289 1048.55L495.08 977.483Z" fill="#B5A9AD"/>
<path d="M478.525 989.516L478.158 990.353L640.366 1061.42L640.733 1060.59L478.525 989.516Z" fill="#B5A9AD"/>
<path d="M461.969 1001.56L461.603 1002.39L623.811 1073.46L624.178 1072.63L461.969 1001.56Z" fill="#B5A9AD"/>
<path d="M445.415 1013.59L445.048 1014.43L607.257 1085.5L607.624 1084.66L445.415 1013.59Z" fill="#B5A9AD"/>
<path d="M428.859 1025.63L428.492 1026.46L590.701 1097.53L591.067 1096.7L428.859 1025.63Z" fill="#B5A9AD"/>
<path d="M412.303 1037.66L411.937 1038.5L574.145 1109.57L574.512 1108.74L412.303 1037.66Z" fill="#B5A9AD"/>
<path d="M395.749 1049.7L395.382 1050.54L557.591 1121.61L557.958 1120.77L395.749 1049.7Z" fill="#B5A9AD"/>
<path d="M379.193 1061.74L378.826 1062.57L541.035 1133.64L541.402 1132.81L379.193 1061.74Z" fill="#B5A9AD"/>
<path d="M350.317 1038.34V1041.08L512.453 1134.07L771.147 984.447V981.705L639.379 906.303L608.422 891.33L559.243 917.123L350.317 1038.34Z" fill="#B5A9AD"/>
<path d="M350.317 1038.34L512.453 1131.33L771.147 981.705L639.379 906.303L608.422 888.588L559.243 917.123L350.317 1038.34Z" fill="#D9DDF6"/>
<path d="M374.642 1029.32L587.274 905.953L740.99 993.913L528.019 1117.09L374.642 1029.32Z" fill="#F8F7F5"/>
<path d="M587.036 906.098L586.582 906.892L740.289 994.859L740.743 994.065L587.036 906.098Z" fill="#B5A9AD"/>
<path d="M569.291 916.303L568.837 917.097L722.545 1005.06L722.999 1004.27L569.291 916.303Z" fill="#B5A9AD"/>
<path d="M551.546 926.509L551.092 927.302L704.799 1015.27L705.253 1014.48L551.546 926.509Z" fill="#B5A9AD"/>
<path d="M533.801 936.712L533.347 937.505L687.055 1025.47L687.509 1024.68L533.801 936.712Z" fill="#B5A9AD"/>
<path d="M516.055 946.917L515.601 947.71L669.309 1035.68L669.763 1034.88L516.055 946.917Z" fill="#B5A9AD"/>
<path d="M498.31 957.121L497.856 957.914L651.564 1045.88L652.018 1045.09L498.31 957.121Z" fill="#B5A9AD"/>
<path d="M480.565 967.323L480.111 968.116L633.819 1056.08L634.273 1055.29L480.565 967.323Z" fill="#B5A9AD"/>
<path d="M462.819 977.53L462.365 978.323L616.073 1066.29L616.527 1065.5L462.819 977.53Z" fill="#B5A9AD"/>
<path d="M445.074 987.734L444.62 988.528L598.328 1076.49L598.782 1075.7L445.074 987.734Z" fill="#B5A9AD"/>
<path d="M427.329 997.937L426.875 998.73L580.583 1086.7L581.037 1085.9L427.329 997.937Z" fill="#B5A9AD"/>
<path d="M409.583 1008.14L409.129 1008.94L562.837 1096.9L563.291 1096.11L409.583 1008.14Z" fill="#B5A9AD"/>
<path d="M391.839 1018.35L391.385 1019.14L545.092 1107.11L545.546 1106.31L391.839 1018.35Z" fill="#B5A9AD"/>
<path d="M374.094 1028.55L373.64 1029.34L527.347 1117.31L527.801 1116.52L374.094 1028.55Z" fill="#B5A9AD"/>
<path d="M359.848 954.209C341.999 991.896 386.671 1001.94 387.858 946.284L365.903 936.725C343.366 954.426 359.848 954.209 359.848 954.209Z" fill="#F4A590"/>
<path d="M690.233 955.78C690.233 955.78 704.377 947.316 675.905 944.073L662.231 963.73C692.444 1010.49 725.202 978.497 690.233 955.78Z" fill="#F4A590"/>
<path d="M392.951 843.575C392.951 843.575 408.175 754.767 448.447 734.707L454.364 732.35C485.808 752.428 451.377 814.18 432.852 864.414C423.151 890.72 389.225 953.726 389.225 953.726L362.223 936.417L392.951 843.575Z" fill="#0FCDE1"/>
<path d="M562.32 1321.59C566.296 1326.14 612.876 1332.95 610.604 1353.97C607.764 1364.76 541.302 1363.63 529.373 1358.52C517.444 1353.4 519.148 1326.14 519.148 1326.14L562.32 1321.59Z" fill="#0FCDE1"/>
<path d="M447.397 1282.96C445.693 1311.93 453.646 1313.64 463.87 1313.07C474.095 1312.5 506.447 1285.85 505.608 1279.58C504.769 1273.31 476.367 1274.44 476.367 1274.44L447.397 1282.96Z" fill="#0FCDE1"/>
<path d="M513.468 1079.6C511.764 1083.58 488.474 1265.92 488.474 1265.92C488.474 1265.92 486.202 1297.17 445.302 1288.65V1124.48C445.302 1124.48 433.373 1019.96 440.19 975.65C447.007 931.342 502.107 985.875 502.107 985.875L513.468 1079.6Z" fill="#2D2862"/>
<path d="M566.297 960.881L469.729 979.627C477.682 1010.87 496.995 1047.79 496.995 1047.79L519.15 1326.14C547.552 1335.23 566.297 1326.14 566.297 1326.14C566.297 1326.14 572.545 1112.55 566.297 960.881Z" fill="#2D2862"/>
<path d="M570.841 976.786C511.764 1032.46 447.006 1000.64 432.237 976.786C432.243 973.542 432.26 970.339 432.288 967.175C433.066 866.557 441.536 803.782 437.65 794.085C435.957 789.864 434.651 785.508 433.77 781.071C432.554 774.913 432.157 768.602 432.702 762.308C435.258 732.599 453.777 722.993 484.497 741.614C521.988 764.336 565.16 768.88 573.112 799.555C574.595 805.27 575.56 813.978 576.134 824.555C578.646 870.783 573.613 952.752 570.841 976.786Z" fill="#0FCDE1"/>
<g opacity="0.5">
<path d="M571.967 975.55C513.929 1032.3 448.595 1001.69 433.387 978.113C433.333 974.87 433.291 971.666 433.261 968.502C475.884 987.303 541.086 960.929 533.432 934.788C522.516 897.492 519.572 861.185 531.352 822.334L574.446 823.247C577.811 869.42 574.294 951.469 571.967 975.55Z" fill="#0FCDE1"/>
</g>
<path d="M621.189 871.245C621.189 871.245 593.693 785.439 551.01 771.209L544.821 769.703C516.495 793.981 548.268 858.126 584.594 897.46C620.92 936.793 661.961 968.851 661.961 968.851L681.239 944.582L621.189 871.245Z" fill="#0FCDE1"/>
<path d="M512.755 760.157C512.755 760.157 476.016 777.378 476.016 749.824V724.566C476.016 724.566 454.202 708.493 457.646 678.642C461.09 648.791 509.31 626.978 532.273 655.68C544.902 674.05 542.121 727.832 538.013 736.047C532.273 747.528 511.607 737.195 511.607 737.195L512.755 760.157Z" fill="#F4A590"/>
<path d="M511.605 737.195L512.264 750.328C500.346 741.847 499.551 729.117 499.551 729.117C499.551 729.117 505.538 733.695 513.883 738.211C512.463 737.627 511.605 737.195 511.605 737.195Z" fill="#FFBD8B"/>
<path d="M517.347 699.308C517.347 687.827 535.717 680.938 541.457 670.606C547.197 660.274 546.049 641.904 546.049 641.904C546.049 641.904 535.716 639.608 532.272 637.312C528.828 635.016 480.607 613.202 457.645 659.126C434.683 680.94 454.201 716.531 476.015 724.568C476.015 736.049 507.014 732.605 508.162 724.568C509.311 716.53 517.347 699.308 517.347 699.308Z" fill="#2D2862"/>
<path d="M523.326 711.038C527.586 706.779 527.586 699.873 523.326 695.613C519.067 691.354 512.161 691.354 507.902 695.613C503.642 699.873 503.642 706.779 507.902 711.038C512.161 715.297 519.067 715.297 523.326 711.038Z" fill="#F4A590"/>
<path d="M511.901 755.312C472.4 770.22 476.016 737.038 476.016 737.038C476.016 737.038 462.488 752.379 476.364 765.264C490.24 778.149 518.571 767.202 523.238 760.286L511.901 755.312Z" fill="#FFFDFF"/>
<g opacity="0.4">
<path d="M1303.65 1307.87L941.145 1517.27L978.296 1538.66L1338.55 1329.26L1303.65 1307.87Z" fill="#0FCDE1"/>
</g>
</svg>
